<mxfile host="app.diagrams.net" modified="2024-05-18T05:03:18.689Z" agent="Mozilla/5.0 (Macintosh; Intel Mac OS X 10_15_7) AppleWebKit/537.36 (KHTML, like Gecko) Chrome/124.0.0.0 Safari/537.36" version="24.4.4" etag="GZD-YwrR2HjRRAHUwtyx" type="github">
  <diagram name="Page-1" id="5yMHdw65HX1tOURGnN2v">
    <mxGraphModel>
      <root>
        <mxCell id="0" />
        <mxCell id="1" parent="0" />
      </root>
    </mxGraphModel>
  </diagram>
</mxfile>
